<svg xmlns="http://www.w3.org/2000/svg" width="18.22" height="18.22" viewBox="0 0 18.22 18.22">
  <g id="Group_414" data-name="Group 414" transform="translate(346.75 -915.891)">
    <path id="Vector" d="M1.68,6.72A1.677,1.677,0,0,1,0,5.04V1.68A1.677,1.677,0,0,1,1.68,0H5.04A1.677,1.677,0,0,1,6.72,1.68V5.04A1.677,1.677,0,0,1,5.04,6.72Z" transform="translate(-346 916.641)" fill="#fff" stroke="#fff" stroke-linecap="round" stroke-linejoin="round" stroke-width="1.5" stroke-dasharray="0 0"/>
    <path id="Vector-2" data-name="Vector" d="M1.68,6.72A1.677,1.677,0,0,1,0,5.04V1.68A1.677,1.677,0,0,1,1.68,0H5.04A1.677,1.677,0,0,1,6.72,1.68V5.04A1.677,1.677,0,0,1,5.04,6.72Z" transform="translate(-336 916.641)" fill="#fff" stroke="#fff" stroke-linecap="round" stroke-linejoin="round" stroke-width="1.5" stroke-dasharray="0 0"/>
    <path id="Vector-3" data-name="Vector" d="M1.68,6.72A1.677,1.677,0,0,1,0,5.04V1.68A1.677,1.677,0,0,1,1.68,0H5.04A1.677,1.677,0,0,1,6.72,1.68V5.04A1.677,1.677,0,0,1,5.04,6.72Z" transform="translate(-346 926.641)" fill="#fff" stroke="#fff" stroke-linecap="round" stroke-linejoin="round" stroke-width="1.5" stroke-dasharray="0 0"/>
    <path id="Vector-4" data-name="Vector" d="M1.68,6.72A1.677,1.677,0,0,1,0,5.04V1.68A1.677,1.677,0,0,1,1.68,0H5.04A1.677,1.677,0,0,1,6.72,1.68V5.04A1.677,1.677,0,0,1,5.04,6.72Z" transform="translate(-336 926.641)" fill="#fff" stroke="#fff" stroke-linecap="round" stroke-linejoin="round" stroke-width="1.5" stroke-dasharray="0 0"/>
  </g>
</svg>
