<svg xmlns="http://www.w3.org/2000/svg" width="74.398" height="23.789" viewBox="0 0 74.398 23.789">
  <g id="Group_381" data-name="Group 381" transform="translate(-138 -583.731)">
    <path id="Path_3" data-name="Path 3" d="M85.009,0l-3.5,11.872L77.97,0H70.7L67.2,11.872,63.659,0H49.029l8.8,23.789H71.205L74.335,11.55l3.221,12.239h7.868L93.521,0Z" transform="translate(118.878 583.731)" fill="#420066"/>
    <path id="Path_4" data-name="Path 4" d="M38.708,8.978V23.789H29.635V11.083a3,3,0,0,0-3.025-3.231,2.883,2.883,0,0,0-3.023,2.971V23.789H15.12V11.083A3,3,0,0,0,12.1,7.852a2.884,2.884,0,0,0-3.025,2.971V23.789H0V.538H9.072V3.367A6.593,6.593,0,0,1,15.09,0a8.625,8.625,0,0,1,7.273,3.815C23.711,1.482,26.494,0,29.907,0a8.716,8.716,0,0,1,8.8,8.978" transform="translate(138 583.731)" fill="#21ffb5"/>
  </g>
</svg>
